<svg width="27" height="32" viewBox="0 0 27 32" fill="none" xmlns="http://www.w3.org/2000/svg">
<path fill-rule="evenodd" clip-rule="evenodd" d="M1.68066 15.794C1.68066 15.5322 1.76921 15.2811 1.92681 15.096C2.08441 14.9109 2.29817 14.8069 2.52106 14.8069H22.3425L17.0531 8.59589C16.8953 8.41053 16.8067 8.15914 16.8067 7.897C16.8067 7.63487 16.8953 7.38347 17.0531 7.19812C17.2109 7.01276 17.4249 6.90863 17.6481 6.90863C17.8713 6.90863 18.0853 7.01276 18.2431 7.19812L24.9662 15.0951C25.0445 15.1868 25.1066 15.2958 25.149 15.4157C25.1913 15.5356 25.2131 15.6642 25.2131 15.794C25.2131 15.9239 25.1913 16.0524 25.149 16.1724C25.1066 16.2923 25.0445 16.4012 24.9662 16.4929L18.2431 24.3899C18.0853 24.5753 17.8713 24.6794 17.6481 24.6794C17.4249 24.6794 17.2109 24.5753 17.0531 24.3899C16.8953 24.2046 16.8067 23.9532 16.8067 23.691C16.8067 23.4289 16.8953 23.1775 17.0531 22.9921L22.3425 16.7811H2.52106C2.29817 16.7811 2.08441 16.6771 1.92681 16.492C1.76921 16.3069 1.68066 16.0558 1.68066 15.794V15.794Z" fill="white" fill-opacity="0.8"/>
</svg>
